<?xml version="1.0" encoding="UTF-8"?>
<svg id="_Слой_1" data-name="Слой 1" xmlns="http://www.w3.org/2000/svg" viewBox="0 0 407.99 412.1">
  <defs>
    <style>
      .cls-1 {
        fill: #000;
        stroke-width: 0px;
      }
    </style>
  </defs>
  <path class="cls-1" d="M193.31,412.1c-53.88-2.92-101.02-25.81-140.02-68.16C23.44,311.51,7.19,271.68,1.46,226.68c-2.84-22.32-1.48-44.58,3.58-66.47,2.48-10.74,7.26-19.55,18.36-21.91,13.03-2.78,25.15,8.5,23.74,22.78-.89,9.06-3.28,17.94-4.65,26.97-3.72,24.41.74,47.74,8.51,70.52,15.84,46.45,47.33,76.06,88.19,95.12,23.05,10.75,47.13,16.15,72.4,12.8,20.23-2.68,38.1-10.92,51.39-28.16,19.79-25.67,23.51-63.67-6.54-91.7-12.08-11.27-26.55-19.69-40.38-28.57-25.89-16.62-52.38-32.16-78.13-49.03-21.82-14.3-36.14-34.92-39.4-63.09-2.37-20.48,2.05-39.45,12.79-56.47,15.75-24.95,38.19-39.09,64.92-45.63,29.29-7.16,58.15-3.9,86.25,6.53,57.07,21.18,100.73,59.91,127.21,119.21,16.74,37.48,22.57,77.28,15.11,118.68-.73,4.03-2.01,8.08-3.71,11.75-4.33,9.32-14.32,13.8-23.47,10.96-8.86-2.75-15.48-13.32-14.55-23.45.3-3.31.74-6.63,1.45-9.86,6.08-27.88,1.74-54.5-7.88-80.61-15.13-41.06-43.29-68.81-77.88-89.92-25.4-15.5-52.5-24.35-81.99-21.89-16.48,1.37-31.72,6.87-43.85,19.56-9.39,9.82-14.82,21.74-11.78,36.45,2.49,12.03,10.51,19.35,19.74,25.1,30.62,19.09,61.49,37.72,92.03,56.96,21.08,13.28,39.77,29.71,52.64,52.67,24.93,44.47,17.05,104.17-17.95,139.77-26.21,26.66-57.84,36.48-94.28,36.34Z"/>
  <path class="cls-1" d="M303.49,116.21c20,.04,36.25,17.8,36.18,39.57-.07,22.6-15.69,39.31-36.65,39.2-19.9-.1-36.18-17.99-36.1-39.64.08-21.69,16.41-39.16,36.57-39.12Z"/>
  <path class="cls-1" d="M102.23,218.46c20.5.04,36.25,17.21,36.11,39.35-.13,21.18-16.15,38.47-35.62,38.44-20.23-.03-36.17-17.57-36-39.6.18-21.67,15.56-38.22,35.5-38.19Z"/>
</svg>